<?xml version="1.0" standalone="no"?>
<!DOCTYPE svg PUBLIC "-//W3C//DTD SVG 1.1//EN" "http://www.w3.org/Graphics/SVG/1.1/DTD/svg11.dtd">
<svg version="1.1" xmlns="http://www.w3.org/2000/svg" viewBox="0 0 149.3551811111745 197.7972764427098" width="149.3551811111745" height="197.7972764427098"><!-- svg-source:excalidraw --><metadata></metadata><defs><style class="style-fonts">
      </style></defs><g stroke-linecap="round" transform="translate(17.84710689854353 20.14451535146958) rotate(0 18.986666978242738 83.24923213537204)"><path d="M9.49 0 C15.44 0, 21.39 0, 28.48 0 C34.81 0, 37.97 3.16, 37.97 9.49 C37.97 44.57, 37.97 79.66, 37.97 157.01 C37.97 163.33, 34.81 166.5, 28.48 166.5 C21.88 166.5, 15.27 166.5, 9.49 166.5 C3.16 166.5, 0 163.33, 0 157.01 C0 104.05, 0 51.1, 0 9.49 C0 3.16, 3.16 0, 9.49 0" stroke="none" stroke-width="0" fill="#f08c00"></path><path d="M9.49 0 C14.42 0, 19.36 0, 28.48 0 M9.49 0 C15.76 0, 22.03 0, 28.48 0 M28.48 0 C34.81 0, 37.97 3.16, 37.97 9.49 M28.48 0 C34.81 0, 37.97 3.16, 37.97 9.49 M37.97 9.49 C37.97 64.55, 37.97 119.6, 37.97 157.01 M37.97 9.49 C37.97 49.38, 37.97 89.27, 37.97 157.01 M37.97 157.01 C37.97 163.33, 34.81 166.5, 28.48 166.5 M37.97 157.01 C37.97 163.33, 34.81 166.5, 28.48 166.5 M28.48 166.5 C23.95 166.5, 19.42 166.5, 9.49 166.5 M28.48 166.5 C24.64 166.5, 20.81 166.5, 9.49 166.5 M9.49 166.5 C3.16 166.5, 0 163.33, 0 157.01 M9.49 166.5 C3.16 166.5, 0 163.33, 0 157.01 M0 157.01 C0 120.64, 0 84.28, 0 9.49 M0 157.01 C0 125.04, 0 93.07, 0 9.49 M0 9.49 C0 3.16, 3.16 0, 9.49 0 M0 9.49 C0 3.16, 3.16 0, 9.49 0" stroke="#f08c00" stroke-width="1" fill="none"></path></g><g stroke-linecap="round" transform="translate(61.677421293848056 109.5678989561863) rotate(89.20427644726075 18.986666978242738 58.43304965021875)"><path d="M9.49 0 C16.65 0, 23.8 0, 28.48 0 C34.81 0, 37.97 3.16, 37.97 9.49 C37.97 42.69, 37.97 75.89, 37.97 107.37 C37.97 113.7, 34.81 116.87, 28.48 116.87 C24.02 116.87, 19.56 116.87, 9.49 116.87 C3.16 116.87, 0 113.7, 0 107.37 C0 77.9, 0 48.44, 0 9.49 C0 3.16, 3.16 0, 9.49 0" stroke="none" stroke-width="0" fill="#f08c00"></path><path d="M9.49 0 C15.73 0, 21.97 0, 28.48 0 M9.49 0 C14.19 0, 18.89 0, 28.48 0 M28.48 0 C34.81 0, 37.97 3.16, 37.97 9.49 M28.48 0 C34.81 0, 37.97 3.16, 37.97 9.49 M37.97 9.49 C37.97 36.86, 37.97 64.22, 37.97 107.37 M37.97 9.49 C37.97 29.85, 37.97 50.22, 37.97 107.37 M37.97 107.37 C37.97 113.7, 34.81 116.87, 28.48 116.87 M37.97 107.37 C37.97 113.7, 34.81 116.87, 28.48 116.87 M28.48 116.87 C23.96 116.87, 19.45 116.87, 9.49 116.87 M28.48 116.87 C22.67 116.87, 16.87 116.87, 9.49 116.87 M9.49 116.87 C3.16 116.87, 0 113.7, 0 107.37 M9.49 116.87 C3.16 116.87, 0 113.7, 0 107.37 M0 107.37 C0 72.24, 0 37.1, 0 9.49 M0 107.37 C0 74.83, 0 42.29, 0 9.49 M0 9.49 C0 3.16, 3.16 0, 9.49 0 M0 9.49 C0 3.16, 3.16 0, 9.49 0" stroke="#f08c00" stroke-width="1" fill="none"></path></g><g stroke-linecap="round" transform="translate(49.94515119057985 52.84057085608168) rotate(89.20427644726075 18.986666978242738 45.23899431176986)"><path d="M9.49 0 C15.89 0, 22.3 0, 28.48 0 C34.81 0, 37.97 3.16, 37.97 9.49 C37.97 24.71, 37.97 39.93, 37.97 80.98 C37.97 87.31, 34.81 90.48, 28.48 90.48 C23.49 90.48, 18.51 90.48, 9.49 90.48 C3.16 90.48, 0 87.31, 0 80.98 C0 57.29, 0 33.6, 0 9.49 C0 3.16, 3.16 0, 9.49 0" stroke="none" stroke-width="0" fill="#f08c00"></path><path d="M9.49 0 C14.52 0, 19.55 0, 28.48 0 M9.49 0 C15.37 0, 21.25 0, 28.48 0 M28.48 0 C34.81 0, 37.97 3.16, 37.97 9.49 M28.48 0 C34.81 0, 37.97 3.16, 37.97 9.49 M37.97 9.49 C37.97 32.61, 37.97 55.73, 37.97 80.98 M37.97 9.49 C37.97 30.8, 37.97 52.1, 37.97 80.98 M37.97 80.98 C37.97 87.31, 34.81 90.48, 28.48 90.48 M37.97 80.98 C37.97 87.31, 34.81 90.48, 28.48 90.48 M28.48 90.48 C22.95 90.48, 17.43 90.48, 9.49 90.48 M28.48 90.48 C24.46 90.48, 20.45 90.48, 9.49 90.48 M9.49 90.48 C3.16 90.48, 0 87.31, 0 80.98 M9.49 90.48 C3.16 90.48, 0 87.31, 0 80.98 M0 80.98 C0 63.46, 0 45.94, 0 9.49 M0 80.98 C0 60.89, 0 40.8, 0 9.49 M0 9.49 C0 3.16, 3.16 0, 9.49 0 M0 9.49 C0 3.16, 3.16 0, 9.49 0" stroke="#f08c00" stroke-width="1" fill="none"></path></g><g stroke-linecap="round" transform="translate(60.171839586278566 -17.040039301251852) rotate(89.20427644726075 18.986666978242738 54.731412295465674)"><path d="M9.49 0 C16.46 0, 23.42 0, 28.48 0 C34.81 0, 37.97 3.16, 37.97 9.49 C37.97 42.98, 37.97 76.46, 37.97 99.97 C37.97 106.3, 34.81 109.46, 28.48 109.46 C22.25 109.46, 16.03 109.46, 9.49 109.46 C3.16 109.46, 0 106.3, 0 99.97 C0 81.33, 0 62.69, 0 9.49 C0 3.16, 3.16 0, 9.49 0" stroke="none" stroke-width="0" fill="#f08c00"></path><path d="M9.49 0 C17 0, 24.5 0, 28.48 0 M9.49 0 C16.44 0, 23.38 0, 28.48 0 M28.48 0 C34.81 0, 37.97 3.16, 37.97 9.49 M28.48 0 C34.81 0, 37.97 3.16, 37.97 9.49 M37.97 9.49 C37.97 33.82, 37.97 58.16, 37.97 99.97 M37.97 9.49 C37.97 27.99, 37.97 46.48, 37.97 99.97 M37.97 99.97 C37.97 106.3, 34.81 109.46, 28.48 109.46 M37.97 99.97 C37.97 106.3, 34.81 109.46, 28.48 109.46 M28.48 109.46 C22.26 109.46, 16.05 109.46, 9.49 109.46 M28.48 109.46 C22.03 109.46, 15.58 109.46, 9.49 109.46 M9.49 109.46 C3.16 109.46, 0 106.3, 0 99.97 M9.49 109.46 C3.16 109.46, 0 106.3, 0 99.97 M0 99.97 C0 79.16, 0 58.36, 0 9.49 M0 99.97 C0 76.96, 0 53.95, 0 9.49 M0 9.49 C0 3.16, 3.16 0, 9.49 0 M0 9.49 C0 3.16, 3.16 0, 9.49 0" stroke="#f08c00" stroke-width="1" fill="none"></path></g><g stroke-linecap="round" transform="translate(56.98256483036198 70.42068977441295) rotate(0 12.414359178081895 26.289231200643854)"><path d="M6.21 0 C9.47 0, 12.74 0, 18.62 0 C22.76 0, 24.83 2.07, 24.83 6.21 C24.83 18.54, 24.83 30.87, 24.83 46.37 C24.83 50.51, 22.76 52.58, 18.62 52.58 C14.44 52.58, 10.25 52.58, 6.21 52.58 C2.07 52.58, 0 50.51, 0 46.37 C0 32.51, 0 18.64, 0 6.21 C0 2.07, 2.07 0, 6.21 0" stroke="none" stroke-width="0" fill="#ffffff"></path><path d="M6.21 0 C10.68 0, 15.16 0, 18.62 0 M6.21 0 C8.83 0, 11.45 0, 18.62 0 M18.62 0 C22.76 0, 24.83 2.07, 24.83 6.21 M18.62 0 C22.76 0, 24.83 2.07, 24.83 6.21 M24.83 6.21 C24.83 20.18, 24.83 34.16, 24.83 46.37 M24.83 6.21 C24.83 19.78, 24.83 33.35, 24.83 46.37 M24.83 46.37 C24.83 50.51, 22.76 52.58, 18.62 52.58 M24.83 46.37 C24.83 50.51, 22.76 52.58, 18.62 52.58 M18.62 52.58 C15.49 52.58, 12.37 52.58, 6.21 52.58 M18.62 52.58 C14.89 52.58, 11.16 52.58, 6.21 52.58 M6.21 52.58 C2.07 52.58, 0 50.51, 0 46.37 M6.21 52.58 C2.07 52.58, 0 50.51, 0 46.37 M0 46.37 C0 33.58, 0 20.78, 0 6.21 M0 46.37 C0 34.27, 0 22.16, 0 6.21 M0 6.21 C0 2.07, 2.07 0, 6.21 0 M0 6.21 C0 2.07, 2.07 0, 6.21 0" stroke="#ffffff" stroke-width="1" fill="none"></path></g><g stroke-linecap="round" transform="translate(10 10) rotate(0 25.3667995882314 25.053698681399425)"><path d="M12.53 0 C18.4 0, 24.28 0, 38.21 0 C46.56 0, 50.73 4.18, 50.73 12.53 C50.73 17.9, 50.73 23.28, 50.73 37.58 C50.73 45.93, 46.56 50.11, 38.21 50.11 C29.45 50.11, 20.69 50.11, 12.53 50.11 C4.18 50.11, 0 45.93, 0 37.58 C0 31.15, 0 24.71, 0 12.53 C0 4.18, 4.18 0, 12.53 0" stroke="none" stroke-width="0" fill="#ffffff"></path><path d="M12.53 0 C19.89 0, 27.26 0, 38.21 0 M12.53 0 C21.28 0, 30.04 0, 38.21 0 M38.21 0 C46.56 0, 50.73 4.18, 50.73 12.53 M38.21 0 C46.56 0, 50.73 4.18, 50.73 12.53 M50.73 12.53 C50.73 20.08, 50.73 27.64, 50.73 37.58 M50.73 12.53 C50.73 21.72, 50.73 30.91, 50.73 37.58 M50.73 37.58 C50.73 45.93, 46.56 50.11, 38.21 50.11 M50.73 37.58 C50.73 45.93, 46.56 50.11, 38.21 50.11 M38.21 50.11 C30.32 50.11, 22.43 50.11, 12.53 50.11 M38.21 50.11 C29.59 50.11, 20.97 50.11, 12.53 50.11 M12.53 50.11 C4.18 50.11, 0 45.93, 0 37.58 M12.53 50.11 C4.18 50.11, 0 45.93, 0 37.58 M0 37.58 C0 28.35, 0 19.12, 0 12.53 M0 37.58 C0 28.08, 0 18.58, 0 12.53 M0 12.53 C0 4.18, 4.18 0, 12.53 0 M0 12.53 C0 4.18, 4.18 0, 12.53 0" stroke="#ffffff" stroke-width="1" fill="none"></path></g></svg>